<svg xmlns="http://www.w3.org/2000/svg" xmlns:xlink="http://www.w3.org/1999/xlink" viewBox="0 0 683.53 682.1"><defs><style>.cls-1{isolation:isolate;}.cls-2{fill:url(#radial-gradient);}.cls-3{fill:url(#radial-gradient-2);}.cls-4{fill:url(#radial-gradient-3);}.cls-5{fill:url(#radial-gradient-4);}.cls-6{fill:url(#radial-gradient-5);}.cls-7{fill:url(#radial-gradient-6);}.cls-8{fill:url(#radial-gradient-7);}.cls-9{fill:url(#radial-gradient-8);}.cls-10{fill:url(#radial-gradient-9);}.cls-11{fill:url(#radial-gradient-10);}.cls-12{fill:url(#radial-gradient-11);}.cls-13{fill:url(#radial-gradient-12);}.cls-14{fill:url(#radial-gradient-13);}.cls-15{fill:url(#radial-gradient-14);}.cls-16{fill:url(#radial-gradient-15);}.cls-17{fill:url(#radial-gradient-16);}.cls-18{fill:url(#radial-gradient-17);}.cls-19{fill:url(#radial-gradient-18);}.cls-20{fill:url(#radial-gradient-19);}.cls-21{fill:url(#radial-gradient-20);}.cls-22{fill:url(#radial-gradient-21);}.cls-23{fill:url(#radial-gradient-22);}.cls-24{fill:url(#radial-gradient-23);}.cls-25{fill:url(#radial-gradient-24);}.cls-26{fill:url(#radial-gradient-25);}.cls-27{fill:#241f1a;mix-blend-mode:color-dodge;}</style><radialGradient id="radial-gradient" cx="281.18" cy="321.85" r="329.96" gradientUnits="userSpaceOnUse"><stop offset="0.37" stop-color="#c90005"/><stop offset="0.58" stop-color="#980b02"/><stop offset="0.68" stop-color="#801000"/><stop offset="0.97" stop-color="#c90005"/></radialGradient><radialGradient id="radial-gradient-2" cx="281.18" cy="321.85" r="329.96" xlink:href="#radial-gradient"/><radialGradient id="radial-gradient-3" cx="281.18" cy="321.85" r="329.96" xlink:href="#radial-gradient"/><radialGradient id="radial-gradient-4" cx="281.18" cy="321.85" r="329.96" xlink:href="#radial-gradient"/><radialGradient id="radial-gradient-5" cx="281.18" cy="321.85" r="329.96" xlink:href="#radial-gradient"/><radialGradient id="radial-gradient-6" cx="281.18" cy="321.85" r="329.96" xlink:href="#radial-gradient"/><radialGradient id="radial-gradient-7" cx="281.18" cy="321.85" r="329.96" xlink:href="#radial-gradient"/><radialGradient id="radial-gradient-8" cx="281.18" cy="321.85" r="329.96" xlink:href="#radial-gradient"/><radialGradient id="radial-gradient-9" cx="281.18" cy="321.85" r="329.96" xlink:href="#radial-gradient"/><radialGradient id="radial-gradient-10" cx="281.18" cy="321.85" r="329.96" xlink:href="#radial-gradient"/><radialGradient id="radial-gradient-11" cx="281.18" cy="321.85" r="329.96" xlink:href="#radial-gradient"/><radialGradient id="radial-gradient-12" cx="281.18" cy="321.85" r="329.96" xlink:href="#radial-gradient"/><radialGradient id="radial-gradient-13" cx="281.18" cy="321.85" r="329.96" xlink:href="#radial-gradient"/><radialGradient id="radial-gradient-14" cx="281.18" cy="321.85" r="329.96" xlink:href="#radial-gradient"/><radialGradient id="radial-gradient-15" cx="281.18" cy="321.85" r="329.96" xlink:href="#radial-gradient"/><radialGradient id="radial-gradient-16" cx="281.18" cy="321.85" r="329.96" xlink:href="#radial-gradient"/><radialGradient id="radial-gradient-17" cx="281.18" cy="321.85" r="329.96" xlink:href="#radial-gradient"/><radialGradient id="radial-gradient-18" cx="281.18" cy="321.85" r="329.96" xlink:href="#radial-gradient"/><radialGradient id="radial-gradient-19" cx="281.18" cy="321.85" r="329.96" xlink:href="#radial-gradient"/><radialGradient id="radial-gradient-20" cx="281.18" cy="321.85" r="329.96" xlink:href="#radial-gradient"/><radialGradient id="radial-gradient-21" cx="281.18" cy="321.85" r="329.96" xlink:href="#radial-gradient"/><radialGradient id="radial-gradient-22" cx="281.18" cy="321.85" r="329.96" xlink:href="#radial-gradient"/><radialGradient id="radial-gradient-23" cx="281.18" cy="321.85" r="329.96" xlink:href="#radial-gradient"/><radialGradient id="radial-gradient-24" cx="281.18" cy="321.85" r="329.96" xlink:href="#radial-gradient"/><radialGradient id="radial-gradient-25" cx="281.18" cy="321.85" r="329.96" xlink:href="#radial-gradient"/></defs><g class="cls-1"><g id="Calque_2" data-name="Calque 2"><g id="Calque_1-2" data-name="Calque 1"><path class="cls-2" d="M630.73,350.46l0-12.52c-77.55,0-61.51.05-67.28-32.66,24-15.62,43.31-23.39,102.45-39.26l-5-18.5c-118.93,31.86-105.46,20.87-118-3.9,10.39-10.05,22.85-18.5,51-34.76L587.62,198c-28,16.18-40.68,23.78-54.94,27.55-14.14-22.47-35.55-18.65,52.05-106.31l-13.55-13.53c-88,88-77.4,69.54-107.87,50.18,4-13.86,10.55-27.4,26.74-55.47L479.2,94.19c-37.31,64.63-28.69,51.54-58.41,40.62-1.15-27,2.12-48.27,17.37-105.29l-18.5-4.94c-31.59,117.89-31.79,98.55-64.25,96.89-4.05-14.82-5.28-29.62-5.28-64.12H337.6c0,34.45.28,48.95-4.41,64.1-27.36,1.29-34.88,22.5-67.49-99.25l-18.52,5c15.81,59,21.6,78.26,17.9,108.38a220.09,220.09,0,0,0-21.8,9.63c-10.05-10.39-18.51-22.84-34.75-51l-10.85,6.26c16.18,28,23.78,40.68,27.55,54.93-22.55,14.2-18.71,35.55-106.29-52L105.39,116.9C208,219.47,176.47,242.1,100.11,198l-6.26,10.85c28.11,16.22,41,23.38,51.42,33.88-11.68,22.81,2.08,38.79-116.07,7.15l-5,18.51c56.77,15.21,77,20.07,100.09,36.68a223,223,0,0,0-3.19,27.56c-14.82,4.05-29.62,5.29-64.13,5.29v12.53c34.45,0,48.95-.28,64.1,4.41,1.3,27.5,22.46,34.87-99.25,67.49l5,18.51C145.76,409,132.3,420,144.84,444.79c-10.39,10-22.85,18.5-51,34.75l6.26,10.85c28-16.18,40.69-23.78,54.93-27.56,14.21,22.56,35.54,18.71-52,106.3l13.55,13.55C204,495.21,193.78,513,224.42,532.49c-4,13.86-10.54,27.41-26.74,55.47l10.84,6.26c16.24-28.12,23.39-41,33.9-51.43,22.77,11.66,38.8-2.11,7.15,116.08l18.49,5c15.23-56.78,20.08-77,36.69-100.1,29.73,5.26,32.85-9.7,32.86,67.33h12.52c0-77.58,0-61.53,32.66-67.3,15.62,24,23.4,43.31,39.24,102.45l18.52-5c-15.81-59-21.59-78.27-17.9-108.39,24.29-9.18,19.69-22.46,56.56,41.36L490.05,588c-37.32-64.65-30.46-50.27-4.93-71.2,24.65,12.72,41.26,25.91,83.68,68.31l13.55-13.56c-87.5-87.48-69.67-77.22-50.2-107.86,13.86,4,27.41,10.54,55.48,26.74l6.25-10.85c-28.12-16.23-41-23.38-51.43-33.89,11.66-22.76-2.14-38.8,116.09-7.15l5-18.5c-56.77-15.22-77-20.07-100.09-36.69C568.66,353.56,553.69,350.48,630.73,350.46Z"/><path class="cls-3" d="M455.85,36c-3,11.69-19.11,17.64-35.92,13.28s-28-17.37-25-29.06S414.08,2.6,430.9,7,458.88,24.32,455.85,36Z"/><path class="cls-4" d="M599.52,134.22c-7.81,9.22-24.87,7.6-38.13-3.62s-17.67-27.79-9.87-37,24.88-7.6,38.13,3.62S607.32,125,599.52,134.22Z"/><path class="cls-5" d="M666.79,287.47c-11.91,2.11-24-10-27-27.14s4.16-32.67,16-34.79,24,10.05,27,27.15S678.68,285.36,666.79,287.47Z"/><path class="cls-6" d="M648.65,458.77c-11.4-4-15.92-20.57-10.12-36.94s19.74-26.36,31.13-22.33,15.9,20.58,10.11,36.95S660,462.81,648.65,458.77Z"/><path class="cls-7" d="M552.9,600.63c-8.41-8.69-5.13-25.51,7.35-37.6s29.39-14.84,37.8-6.18,5.12,25.51-7.35,37.59S561.31,609.3,552.9,600.63Z"/><path class="cls-8" d="M397.81,666c-2.39-11.85,9.45-24.24,26.48-27.68s32.76,3.37,35.16,15.21S450,677.76,433,681.2,400.2,677.84,397.81,666Z"/><path class="cls-9" d="M226.36,651.86c2.59-11.81,18.43-18.36,35.4-14.63s28.61,16.3,26,28.1-18.44,18.34-35.4,14.63S223.77,663.65,226.36,651.86Z"/><path class="cls-10" d="M85.8,561.3c6.49-10.2,23.61-10.91,38.27-1.58s21.26,25.15,14.77,35.34-23.61,10.88-38.27,1.57S79.31,571.48,85.8,561.3Z"/><path class="cls-11" d="M12.07,404.08c11.29-4.33,25.46,5.29,31.69,21.52s2.1,32.86-9.17,37.19S9.13,457.46,2.9,441.26.79,408.39,12.07,404.08Z"/><path class="cls-12" d="M32.87,230.37c11.72,2.95,17.78,19,13.54,35.83s-17.18,28.08-28.89,25.15S-.25,272.34,4,255.51,21.16,227.41,32.87,230.37Z"/><path class="cls-13" d="M133.05,87c8.71,8.39,6,25.31-6,37.84s-28.86,15.84-37.57,7.47-6-25.31,6-37.83S124.35,78.59,133.05,87Z"/><path class="cls-14" d="M286.19,14c3.36,11.61-7.42,24.92-24.12,29.75s-32.91-.68-36.28-12.27,7.47-24.93,24.13-29.76S282.84,2.42,286.19,14Z"/><path class="cls-15" d="M364.64,56.17c.35,8.24-9,15.31-20.8,15.82s-21.71-5.78-22.07-14,9-15.31,20.82-15.82S364.29,47.94,364.64,56.17Z"/><path class="cls-16" d="M504,108c-3.65,7.4-15.21,9.15-25.84,3.91s-16.29-15.47-12.66-22.87,15.22-9.13,25.85-3.91S507.63,100.62,504,108Z"/><path class="cls-17" d="M598.62,223.37c-6.85,4.6-17.74.36-24.36-9.47s-6.42-21.53.42-26.14,17.75-.34,24.36,9.48S605.46,218.76,598.62,223.37Z"/><path class="cls-18" d="M628.73,365.88c-8.25-.16-14.74-9.88-14.52-21.73s7.08-21.32,15.33-21.17,14.73,9.9,14.52,21.74S637,366,628.73,365.88Z"/><path class="cls-19" d="M576.77,501.25c-6.81-4.66-6.92-16.35-.23-26.14s17.62-13.93,24.43-9.28,6.89,16.36.22,26.14S583.57,505.9,576.77,501.25Z"/><path class="cls-20" d="M464.72,600.75c-4.55-6.88-.25-17.75,9.64-24.3s21.56-6.27,26.12.61.22,17.75-9.64,24.29S469.27,607.62,464.72,600.75Z"/><path class="cls-21" d="M322.7,632.73c-1.18-8.17,7.35-16.16,19.09-17.86s22.17,3.53,23.37,11.7-7.39,16.14-19.1,17.85S323.88,640.88,322.7,632.73Z"/><path class="cls-22" d="M185.55,581.79c3.84-7.3,15.44-8.76,25.94-3.24s15.86,15.89,12,23.19-15.45,8.73-25.94,3.23S181.72,589.08,185.55,581.79Z"/><path class="cls-23" d="M84.12,470.28c6-5.63,17.48-3.16,25.55,5.52s9.72,20.25,3.69,25.87-17.48,3.12-25.55-5.53S78.09,475.89,84.12,470.28Z"/><path class="cls-24" d="M56.11,322.28c8.26-.17,15.14,9.28,15.38,21.14S65.26,365,57,365.16,41.9,355.86,41.64,344,47.88,322.44,56.11,322.28Z"/><path class="cls-25" d="M105.32,183.44c7.76,2.81,10.78,14.11,6.74,25.26s-13.57,17.89-21.33,15.08S80,209.66,84,198.53,97.57,180.63,105.32,183.44Z"/><path class="cls-26" d="M219.3,85.61c4.7,6.79.61,17.74-9.14,24.49S188.73,116.81,184,110s-.58-17.74,9.14-24.48S214.61,78.83,219.3,85.61Z"/><path class="cls-27" d="M417.65,525.57c0,13.62-27.75,24.66-62,24.66s-62-11-62-24.66,27.75-24.66,62-24.66S417.65,512,417.65,525.57Z"/><path class="cls-27" d="M361.44,169.55c0,11.39-23.22,20.63-51.86,20.63s-51.84-9.24-51.84-20.63,23.21-20.63,51.84-20.63S361.44,158.15,361.44,169.55Z"/><path class="cls-27" d="M238.71,480.75c-10.66,8.47-36.57-6.37-57.88-33.17s-29.93-55.37-19.27-63.84,36.57,6.36,57.87,33.14S249.37,472.27,238.71,480.75Z"/><path class="cls-27" d="M508.25,381.82c13.36,6.46,13.94,32.91,1.29,59.08s-33.72,42.15-47.09,35.7-13.94-32.91-1.29-59.08S494.88,375.36,508.25,381.82Z"/><path class="cls-27" d="M212.14,207.84c13.37,6.46,13.94,32.91,1.29,59.08s-33.72,42.16-47.08,35.7-13.94-32.91-1.3-59.08S198.77,201.39,212.14,207.84Z"/><path class="cls-27" d="M505.19,244c9.53-2,20.47,11.48,24.44,30.15s-.54,35.46-10.07,37.49-20.49-11.48-24.45-30.15S495.65,246.06,505.19,244Z"/><path class="cls-27" d="M411.91,168.17c7.21-6.56,23.47-.43,36.32,13.69s17.43,30.89,10.22,37.45-23.48.43-36.33-13.69S404.69,174.74,411.91,168.17Z"/><circle class="cls-27" cx="277.33" cy="318.18" r="29.96" transform="translate(-143.76 289.29) rotate(-45)"/><path class="cls-27" d="M399.46,247.9a27.66,27.66,0,1,1-27.65-27.66A27.65,27.65,0,0,1,399.46,247.9Z"/><circle class="cls-27" cx="438.63" cy="323.94" r="18.43"/><path class="cls-27" d="M391.39,398.83a17.28,17.28,0,1,1-17.28-17.28A17.27,17.27,0,0,1,391.39,398.83Z"/><circle class="cls-27" cx="279.63" cy="417.26" r="25.35"/><path class="cls-27" d="M413.28,448.37a18.44,18.44,0,1,1-18.43-18.43A18.44,18.44,0,0,1,413.28,448.37Z"/><path class="cls-27" d="M280.78,243.29a10.37,10.37,0,1,1-10.37-10.37A10.37,10.37,0,0,1,280.78,243.29Z"/><circle class="cls-27" cx="232.39" cy="349.29" r="16.13"/><circle class="cls-27" cx="360.28" cy="335.46" r="16.13" transform="translate(-87.52 539.94) rotate(-67.5)"/><path class="cls-27" d="M474.35,253.66a24.2,24.2,0,1,1-24.2-24.2A24.19,24.19,0,0,1,474.35,253.66Z"/><circle class="cls-27" cx="531.96" cy="370.02" r="10.37"/><path class="cls-27" d="M250.83,519.81a12.68,12.68,0,1,1-12.68-12.68A12.68,12.68,0,0,1,250.83,519.81Z"/><circle class="cls-27" cx="152.89" cy="343.53" r="12.67"/></g></g></g></svg>