<?xml version="1.0"?>
<svg xmlns="http://www.w3.org/2000/svg" xmlns:xlink="http://www.w3.org/1999/xlink" xmlns:svgjs="http://svgjs.com/svgjs" version="1.1" width="512" height="512" x="0" y="0" viewBox="0 0 511.975 511.975" style="enable-background:new 0 0 512 512" xml:space="preserve" class=""><circle r="255.9875" cx="255.9875" cy="255.9875" fill="#be0204" shape="circle"/><g transform="matrix(0.7,0,0,0.7,76.796484375,76.796484375)"><g xmlns="http://www.w3.org/2000/svg"><path d="m504.96 0-177.905 42.751-6.855-29.144-149.202 35.115 6.869 29.205-177.861 41.844 6.87 29.203 177.86-41.844 6.871 29.213 49.296-11.602v56.234h-112.209l-4.503 5.629c-36.179 45.223-56.168 101.811-56.287 159.34-.208 101.153 58.876 162.633 60.791 166.031h254.419c1.925-3.409 60.584-64.724 60.791-164.969.208-101.153-58.876-162.633-60.791-166.031h-112.209v-63.295l69.906-16.452-6.886-29.274 178.045-42.785zm-361.703 210.966h37.646v120.01h-82.446c3.029-43.172 18.633-85.087 44.8-120.01zm225.293 271.009h-225.293c-26.38-35.195-42.009-77.465-44.867-121.01h315.035c-2.857 43.534-18.505 85.827-44.875 121.01zm-37.646-271h37.647c26.178 34.925 41.766 76.818 44.797 120h-82.444zm-30-.01v120.01h-90v-120.01zm-86.963-110.697-6.871-29.215 90.798-21.369 6.871 29.215z" fill="#ffffff" data-original="#000000" style=""/></g></g></svg>
